REM MD5 d4f1604df4edc2da911ffe0248225dec
FILE "Defcon 5 (Germany).bin" BINARY
  TRACK 01 MODE2/2352
    INDEX 01 00:00:00
  TRACK 02 AUDIO
    INDEX 00 35:09:09
    INDEX 01 35:11:09
  TRACK 03 AUDIO
    INDEX 00 47:00:61
    INDEX 01 47:02:61
REM LEADOUT 50:09:54
